# xmcd
#
# Track frame offsets:
#	150
#	12195
#	24544
#	43449
#	52470
#	63205
#	69923
#	77193
#	86353
#	94367
#	103965
#	114882
#	127543
#	133109
#	144827
#
# Disc length: 2143 seconds
#
# Revision: 0
# Processed by: cddbd v1.5.2PL0 Copyright (c) Steve Scherf et al.
# Submitted via: EasyCDDAExtractor 12.0.4.1
#
DISCID=c9085d0f
DTITLE=Maria Hoffman - Silence and Blood
DYEAR=2004
DGENRE=
TTITLE0=Good Morning Dreams
TTITLE1=You Are Mystery
TTITLE2=Silence and Blood
TTITLE3=Generation Of Love
TTITLE4=I Said To My Father
TTITLE5=The Wind
TTITLE6=Elephants
TTITLE7=Somebody
TTITLE8=Old Book
TTITLE9=Darkness
TTITLE10=Forgotten Roots
TTITLE11=Orange Memories
TTITLE12=Wooden Eyes
TTITLE13=For Survival
TTITLE14=The Singer And The Poet
EXTD=
EXTT0=
EXTT1=
EXTT2=
EXTT3=
EXTT4=
EXTT5=
EXTT6=
EXTT7=
EXTT8=
EXTT9=
EXTT10=
EXTT11=
EXTT12=
EXTT13=
EXTT14=
PLAYORDER=
